# xmcd CD database file
#
# Track frame offsets:
#	150
#	17980
#	32781
#	49872
#	63868
#	78477
#	94462
#	111653
#	124338
#	137090
#	157883
#	176213
#	194894
#	206178
#	217054
#
# Disc length: 3160 seconds
#
# Revision: 1
# Processed by: cddbd v1.5.2PL0 Copyright (c) Steve Scherf et al.
# Submitted via: CDex 1.51
#
DISCID=f10c560f
DTITLE=Various Artist - Bal Populaire  [CD 2-2]
DYEAR=2011
DGENRE=Ambiance
TTITLE0=La Compagnie Créole - Sere mwen ( Assez )   { Zouk Biguine }
TTITLE1=Xanti - Maladie d'amour   { Zouk Biguine }
TTITLE2=Elysée Sango - Ba moin en ti bo   { Zouk Biguine } 
TTITLE3=Bernard Menez - Jolie poupée   { Ambiance } 
TTITLE4=Evelyne Leclercq and Dominique Dalbret - Brigitte Bardot   { Ambiance } 
TTITLE5=Ultraz Boys - Il est vraiment phénomenal   { Ambiance }
TTITLE6=Bodega - La pitchoulie   { Ambiance } 
TTITLE7=Michel Pruvot - Le gambadou   { Ambiance } 
TTITLE8=Les Charlots - Merci patron   { Ambiance } 
TTITLE9=Les Fêtards - La danse des canards   { Ambiance } 
TTITLE10=Ambiance and Co - La chenille   { Ambiance } 
TTITLE11=Bézu - La queuleuleu   { Ambiance } 
TTITLE12=Ritchy - Poupée sucrée   { Rock Pop } 
TTITLE13=Lauriane - Le locomotion   { Twist }
TTITLE14=Madison Band - Last night   { Madison } 
EXTD=YEAR: 2011
EXTT0=
EXTT1=
EXTT2=
EXTT3=
EXTT4=
EXTT5=
EXTT6=
EXTT7=
EXTT8=
EXTT9=
EXTT10=
EXTT11=
EXTT12=
EXTT13=
EXTT14=
PLAYORDER=
